# xmcd
#
# Track frame offsets: 
#        150
#        18170
#        47007
#        82429
#        99851
#        109096
#        122513
#        133727
#        149554
#        172881
#        193630
#        212980
#        236469
#        264311
#        281293
#
# Disc length: 4346 seconds
#
# Revision: 3
# Processed by: cddbd v1.5.2PL0 Copyright (c) Steve Scherf et al.
# Submitted via: ExactAudioCopy v0.99pb4
#
DISCID=d010f80f
DTITLE=Pink Ployd - Best of Pink Floyd
DYEAR=1900
DGENRE=
TTITLE0=Breathe
TTITLE1=Money
TTITLE2=Us and Them
TTITLE3=Brain Demage
TTITLE4=Eclipse
TTITLE5=Arnold Layne
TTITLE6=When You're In
TTITLE7=Burning Bridges
TTITLE8=Wot's ... Uh The Deal
TTITLE9=Childhood's End
TTITLE10=Free Four
TTITLE11=A Pillow Of Winds
TTITLE12=Fearless
TTITLE13=San Tropez
TTITLE14=Echoes
EXTD=
EXTT0=
EXTT1=
EXTT2=
EXTT3=
EXTT4=
EXTT5=
EXTT6=
EXTT7=
EXTT8=
EXTT9=
EXTT10=
EXTT11=
EXTT12=
EXTT13=
EXTT14=
PLAYORDER=
